<svg xmlns="http://www.w3.org/2000/svg" xmlns:xlink="http://www.w3.org/1999/xlink" viewBox="0 0 111.82 93.55">
    <defs>
        <linearGradient id="a956153b-d502-4ab2-88b8-d128b048268c" x1="18.64" y1="84.09" x2="85.77" y2="16.95" gradientTransform="matrix(1, 0, 0, -1, 0, 95.99)" gradientUnits="userSpaceOnUse">
            <stop offset="0" stop-color="#ffb2c2"></stop>
            <stop offset="1" stop-color="#f85e8a"></stop>
        </linearGradient>
    </defs>
    <title>7611</title>
    <g id="ad0056e3-db17-466b-ab56-04529f256c13">
        <g id="e790ea6f-7019-4979-a01c-58cb8a97065f">
            <path d="M15.49,30.51c-8.8,6.16-16.89,4.55-6-9.12C21.46,6.5,44.35-3,68.21,1.62,92.9,6.4,110.46,35.93,93.49,68.43s-66.88,31.71-77.37,7.68C5.25,51.22,21.82,32.9,37.34,28.7,55.17,23.87,63.7,31.78,55,39.7S48.1,50.49,52.45,53C58.3,56.36,56.57,66.37,46,63.64c-3.78-1-2.76-4.57-1.27-19.23,1.06-10.46-15-15-15.17-2.54s0,25.83,2.53,28.72,19.86,9,31.6,1.62,8.57-19.68,4.06-22.57-4.82-3.08-.54-5.78c6.4-4,11.1-15.88.27-22.93C57.16,14.23,37.7,15,15.49,30.51Z" fill="url(#a956153b-d502-4ab2-88b8-d128b048268c)"></path>
            <path d="M92.06,76.23c1.53-1.75,11.39-1.17,8.9,4.56S89.88,78.73,92.06,76.23Z" fill="#ab8eeb"></path>
            <path d="M89.13,81.3c2.06-.86,5.93,4.18,1.25,5.11C88.47,86.8,86.91,82.24,89.13,81.3Z" fill="#f757af"></path>
            <path d="M8,42.15c-11.46,5.14-9.32,19-2,8.64C11.22,43.34,13.71,39.6,8,42.15Z" fill="#ffbd88"></path>
            <path d="M111.68,44.81c-1.1-10.26-7.45-18.08-16.68-23.19h0C78,12.2,51.22,12,29.54,22.4,45.73,15,59.4,15.69,67.49,21,78.32,28,73.62,39.9,67.22,43.92c-4.28,2.7-4,2.89.54,5.78s7.67,15.17-4.06,22.57C56,77.11,45.76,76.09,39,74c14.48,6,36,5.42,51.9-1.23a45.33,45.33,0,0,0,2.59-4.35,55.71,55.71,0,0,0,6.75-25.36,55.8,55.8,0,0,1-6.74,25.38,45.33,45.33,0,0,1-2.59,4.35C103.86,67.36,113.08,57.92,111.68,44.81Z" fill="#ff00a4" opacity="0.3" style="isolation:isolate"></path>
            <path d="M63.67,72.22c-11.68,7.4-29,1.27-31.57-1.62s-2.71-16.26-2.53-28.72c.06-4.15,1.88-6.41,4.25-7.2-5.68.7-12.63,5.34-18,11.85a.14.14,0,0,0,0,.06c-6.42,7.83-10.5,18.35-7.27,28,1.94,5.82,7.8,9.54,15.24,11.13h0c16.28,3.43,40.07-3.42,46.89-21.29A17.27,17.27,0,0,1,63.67,72.22Z" fill="#3c2299" opacity="0.5" style="isolation:isolate"></path>
            <path d="M51.57.6a51.9,51.9,0,0,0-19.32.67C13.41,5.39,5.53,16.53,9.06,22l.48-.61c8-10,20.82-17.48,35.59-20C30.36,3.9,17.51,11.42,9.54,21.39l-.48.6c2.23,3.47,9,4.67,20.47.4,16.2-7.4,29.88-6.7,38-1.4,6,3.93,7.25,9.35,6,14.08C86.19,23.65,74.23,4.28,51.57.6Z" fill="#ff3e24" opacity="0.5">
            </path>
        </g>
    </g>
</svg>